<svg width="800" height="800" viewBox="0 0 800 800" fill="none" xmlns="http://www.w3.org/2000/svg">
<path d="M88 123.289C88 103.8 103.8 88 123.289 88H393.03V393.03H88V123.289Z" fill="#FFB800"/>
<path d="M88 410.686H393.03V680.427C393.03 699.917 377.23 715.716 357.741 715.716H123.289C103.8 715.716 88 699.917 88 680.427V410.686Z" fill="#F82D00"/>
<path d="M410.687 410.97H539.269C636.718 410.97 715.717 489.968 715.717 587.417V716H587.134C489.685 716 410.687 637.002 410.687 539.553V410.97Z" fill="#00B01C"/>
<path d="M563.196 88C647.431 88 715.717 156.286 715.717 240.521C715.717 324.756 647.431 393.042 563.196 393.042H410.675V88L563.196 88Z" fill="#495CC1"/>
</svg>
