<svg width="120" height="120" viewBox="0 0 120 120" fill="none" xmlns="http://www.w3.org/2000/svg">
<path d="M0.0192871 6.98653C0.0192871 3.27016 3.032 0.257446 6.74837 0.257446H58.1832V58.4214H0.0192871V6.98653Z" fill="#00A4D8"/>
<path d="M0.0192871 61.7882H58.1832V113.223C58.1832 116.939 55.1705 119.952 51.4542 119.952H6.74837C3.032 119.952 0.0192871 116.939 0.0192871 113.223V61.7882Z" fill="#00A4D8"/>
<path d="M61.6003 61.8361H86.1189C104.701 61.8361 119.764 76.8996 119.764 95.4815V120H95.2458C76.6639 120 61.6003 104.936 61.6003 86.3546V61.8361Z" fill="#00A4D8"/>
<path d="M90.6811 0.162109C106.743 0.162109 119.764 13.1831 119.764 29.2452C119.764 45.3073 106.743 58.3283 90.6811 58.3283L61.598 58.3283L61.598 0.162109L90.6811 0.162109Z" fill="#00A4D8"/>
</svg>
